<svg width="84" height="84" viewBox="0 0 84 84" fill="none" xmlns="http://www.w3.org/2000/svg">
<circle cx="42" cy="42" r="41.5" fill="#FAF6F3" stroke="#DFC277"/>
<g clipPath="url(#clip0_3888_7665)">
<path d="M46.0386 54.1154H33.9232C32.8522 54.1154 31.825 53.6899 31.0676 52.9326C30.3102 52.1752 29.8848 51.148 29.8848 50.077V48.7308H43.3463V51.4231C43.3463 52.1371 43.63 52.8219 44.1349 53.3269C44.6398 53.8318 45.3246 54.1154 46.0386 54.1154ZM46.0386 54.1154C46.7527 54.1154 47.4375 53.8318 47.9424 53.3269C48.4473 52.8219 48.7309 52.1371 48.7309 51.4231V32.577C48.7309 32.0445 48.8888 31.5239 49.1847 31.0812C49.4805 30.6384 49.901 30.2934 50.3929 30.0896C50.8849 29.8858 51.4262 29.8325 51.9485 29.9364C52.4707 30.0403 52.9504 30.2967 53.327 30.6732C53.7035 31.0497 53.9599 31.5295 54.0638 32.0517C54.1677 32.574 54.1144 33.1153 53.9106 33.6073C53.7068 34.0992 53.3617 34.5197 52.919 34.8155C52.4762 35.1114 51.9557 35.2693 51.4232 35.2693H48.7309M51.4232 29.8846H36.6155C35.5445 29.8846 34.5173 30.3101 33.7599 31.0675C33.0026 31.8248 32.5771 32.852 32.5771 33.9231V48.7308" stroke="#C8934F" stroke-width="2.5" stroke-linecap="round" strokeLinejoin="round"/>
<path d="M37.9609 35.2693H43.3456" stroke="#C8934F" stroke-width="2.5" stroke-linecap="round" strokeLinejoin="round"/>
<path d="M37.9609 40.6539H43.3456" stroke="#C8934F" stroke-width="2.5" stroke-linecap="round" ="round"/>
</g>
<defs>
<clipPath id="clip0_3888_7665">
<rect width="32.3077" height="32.3077" fill="white" transform="translate(25.8457 25.8462)"/>
</clipPath>
</defs>
</svg>
